G04 #@! TF.FileFunction,Legend,Bot*
%FSLAX46Y46*%
G04 Gerber Fmt 4.6, Leading zero omitted, Abs format (unit mm)*
G04 Created by KiCad (PCBNEW 4.0.1-stable) date Fri 01 Jan 2016 07:05:39 PM EST*
%MOMM*%
G01*
G04 APERTURE LIST*
%ADD10C,0.100000*%
%ADD11C,0.300000*%
G04 APERTURE END LIST*
D10*
D11*
X210792143Y-128758571D02*
X210863571Y-128972857D01*
X210863571Y-129330000D01*
X210792143Y-129472857D01*
X210720714Y-129544286D01*
X210577857Y-129615714D01*
X210435000Y-129615714D01*
X210292143Y-129544286D01*
X210220714Y-129472857D01*
X210149286Y-129330000D01*
X210077857Y-129044286D01*
X210006429Y-128901428D01*
X209935000Y-128830000D01*
X209792143Y-128758571D01*
X209649286Y-128758571D01*
X209506429Y-128830000D01*
X209435000Y-128901428D01*
X209363571Y-129044286D01*
X209363571Y-129401428D01*
X209435000Y-129615714D01*
X209863571Y-130115714D02*
X210863571Y-130401428D01*
X210149286Y-130687142D01*
X210863571Y-130972857D01*
X209863571Y-131258571D01*
X210863571Y-131830000D02*
X209863571Y-131830000D01*
X209363571Y-131830000D02*
X209435000Y-131758571D01*
X209506429Y-131830000D01*
X209435000Y-131901428D01*
X209363571Y-131830000D01*
X209506429Y-131830000D01*
X209863571Y-132330000D02*
X209863571Y-132901429D01*
X209363571Y-132544286D02*
X210649286Y-132544286D01*
X210792143Y-132615714D01*
X210863571Y-132758572D01*
X210863571Y-132901429D01*
X210792143Y-134044286D02*
X210863571Y-133901429D01*
X210863571Y-133615715D01*
X210792143Y-133472857D01*
X210720714Y-133401429D01*
X210577857Y-133330000D01*
X210149286Y-133330000D01*
X210006429Y-133401429D01*
X209935000Y-133472857D01*
X209863571Y-133615715D01*
X209863571Y-133901429D01*
X209935000Y-134044286D01*
X210863571Y-134687143D02*
X209363571Y-134687143D01*
X210863571Y-135330000D02*
X210077857Y-135330000D01*
X209935000Y-135258571D01*
X209863571Y-135115714D01*
X209863571Y-134901429D01*
X209935000Y-134758571D01*
X210006429Y-134687143D01*
X191429286Y-130131429D02*
X191429286Y-131631429D01*
X192286429Y-130131429D02*
X191643572Y-130988571D01*
X192286429Y-131631429D02*
X191429286Y-130774286D01*
X193500714Y-130202857D02*
X193357857Y-130131429D01*
X193072143Y-130131429D01*
X192929286Y-130202857D01*
X192857857Y-130345714D01*
X192857857Y-130917143D01*
X192929286Y-131060000D01*
X193072143Y-131131429D01*
X193357857Y-131131429D01*
X193500714Y-131060000D01*
X193572143Y-130917143D01*
X193572143Y-130774286D01*
X192857857Y-130631429D01*
X194072143Y-131131429D02*
X194429286Y-130131429D01*
X194786428Y-131131429D02*
X194429286Y-130131429D01*
X194286428Y-129774286D01*
X194215000Y-129702857D01*
X194072143Y-129631429D01*
X195357857Y-130131429D02*
X195357857Y-131631429D01*
X195357857Y-131060000D02*
X195500714Y-131131429D01*
X195786428Y-131131429D01*
X195929285Y-131060000D01*
X196000714Y-130988571D01*
X196072143Y-130845714D01*
X196072143Y-130417143D01*
X196000714Y-130274286D01*
X195929285Y-130202857D01*
X195786428Y-130131429D01*
X195500714Y-130131429D01*
X195357857Y-130202857D01*
X196929286Y-130131429D02*
X196786428Y-130202857D01*
X196715000Y-130274286D01*
X196643571Y-130417143D01*
X196643571Y-130845714D01*
X196715000Y-130988571D01*
X196786428Y-131060000D01*
X196929286Y-131131429D01*
X197143571Y-131131429D01*
X197286428Y-131060000D01*
X197357857Y-130988571D01*
X197429286Y-130845714D01*
X197429286Y-130417143D01*
X197357857Y-130274286D01*
X197286428Y-130202857D01*
X197143571Y-130131429D01*
X196929286Y-130131429D01*
X198715000Y-130131429D02*
X198715000Y-130917143D01*
X198643571Y-131060000D01*
X198500714Y-131131429D01*
X198215000Y-131131429D01*
X198072143Y-131060000D01*
X198715000Y-130202857D02*
X198572143Y-130131429D01*
X198215000Y-130131429D01*
X198072143Y-130202857D01*
X198000714Y-130345714D01*
X198000714Y-130488571D01*
X198072143Y-130631429D01*
X198215000Y-130702857D01*
X198572143Y-130702857D01*
X198715000Y-130774286D01*
X199429286Y-130131429D02*
X199429286Y-131131429D01*
X199429286Y-130845714D02*
X199500714Y-130988571D01*
X199572143Y-131060000D01*
X199715000Y-131131429D01*
X199857857Y-131131429D01*
X201000714Y-130131429D02*
X201000714Y-131631429D01*
X201000714Y-130202857D02*
X200857857Y-130131429D01*
X200572143Y-130131429D01*
X200429285Y-130202857D01*
X200357857Y-130274286D01*
X200286428Y-130417143D01*
X200286428Y-130845714D01*
X200357857Y-130988571D01*
X200429285Y-131060000D01*
X200572143Y-131131429D01*
X200857857Y-131131429D01*
X201000714Y-131060000D01*
X206627856Y-125543571D02*
X206627856Y-126757857D01*
X206556428Y-126900714D01*
X206484999Y-126972143D01*
X206342142Y-127043571D01*
X206056428Y-127043571D01*
X205913570Y-126972143D01*
X205842142Y-126900714D01*
X205770713Y-126757857D01*
X205770713Y-125543571D01*
X205127856Y-126972143D02*
X204913570Y-127043571D01*
X204556427Y-127043571D01*
X204413570Y-126972143D01*
X204342141Y-126900714D01*
X204270713Y-126757857D01*
X204270713Y-126615000D01*
X204342141Y-126472143D01*
X204413570Y-126400714D01*
X204556427Y-126329286D01*
X204842141Y-126257857D01*
X204984999Y-126186429D01*
X205056427Y-126115000D01*
X205127856Y-125972143D01*
X205127856Y-125829286D01*
X205056427Y-125686429D01*
X204984999Y-125615000D01*
X204842141Y-125543571D01*
X204484999Y-125543571D01*
X204270713Y-125615000D01*
X203127856Y-126257857D02*
X202913570Y-126329286D01*
X202842142Y-126400714D01*
X202770713Y-126543571D01*
X202770713Y-126757857D01*
X202842142Y-126900714D01*
X202913570Y-126972143D01*
X203056428Y-127043571D01*
X203627856Y-127043571D01*
X203627856Y-125543571D01*
X203127856Y-125543571D01*
X202984999Y-125615000D01*
X202913570Y-125686429D01*
X202842142Y-125829286D01*
X202842142Y-125972143D01*
X202913570Y-126115000D01*
X202984999Y-126186429D01*
X203127856Y-126257857D01*
X203627856Y-126257857D01*
X201056428Y-126972143D02*
X200842142Y-127043571D01*
X200484999Y-127043571D01*
X200342142Y-126972143D01*
X200270713Y-126900714D01*
X200199285Y-126757857D01*
X200199285Y-126615000D01*
X200270713Y-126472143D01*
X200342142Y-126400714D01*
X200484999Y-126329286D01*
X200770713Y-126257857D01*
X200913571Y-126186429D01*
X200984999Y-126115000D01*
X201056428Y-125972143D01*
X201056428Y-125829286D01*
X200984999Y-125686429D01*
X200913571Y-125615000D01*
X200770713Y-125543571D01*
X200413571Y-125543571D01*
X200199285Y-125615000D01*
X199699285Y-126043571D02*
X199413571Y-127043571D01*
X199127857Y-126329286D01*
X198842142Y-127043571D01*
X198556428Y-126043571D01*
X197984999Y-127043571D02*
X197984999Y-126043571D01*
X197984999Y-125543571D02*
X198056428Y-125615000D01*
X197984999Y-125686429D01*
X197913571Y-125615000D01*
X197984999Y-125543571D01*
X197984999Y-125686429D01*
X197484999Y-126043571D02*
X196913570Y-126043571D01*
X197270713Y-125543571D02*
X197270713Y-126829286D01*
X197199285Y-126972143D01*
X197056427Y-127043571D01*
X196913570Y-127043571D01*
X195770713Y-126972143D02*
X195913570Y-127043571D01*
X196199284Y-127043571D01*
X196342142Y-126972143D01*
X196413570Y-126900714D01*
X196484999Y-126757857D01*
X196484999Y-126329286D01*
X196413570Y-126186429D01*
X196342142Y-126115000D01*
X196199284Y-126043571D01*
X195913570Y-126043571D01*
X195770713Y-126115000D01*
X195127856Y-127043571D02*
X195127856Y-125543571D01*
X194484999Y-127043571D02*
X194484999Y-126257857D01*
X194556428Y-126115000D01*
X194699285Y-126043571D01*
X194913570Y-126043571D01*
X195056428Y-126115000D01*
X195127856Y-126186429D01*
X191842142Y-127043571D02*
X192699285Y-127043571D01*
X192270713Y-127043571D02*
X192270713Y-125543571D01*
X192413570Y-125757857D01*
X192556428Y-125900714D01*
X192699285Y-125972143D01*
X191199285Y-126900714D02*
X191127857Y-126972143D01*
X191199285Y-127043571D01*
X191270714Y-126972143D01*
X191199285Y-126900714D01*
X191199285Y-127043571D01*
X190199285Y-125543571D02*
X190056428Y-125543571D01*
X189913571Y-125615000D01*
X189842142Y-125686429D01*
X189770713Y-125829286D01*
X189699285Y-126115000D01*
X189699285Y-126472143D01*
X189770713Y-126757857D01*
X189842142Y-126900714D01*
X189913571Y-126972143D01*
X190056428Y-127043571D01*
X190199285Y-127043571D01*
X190342142Y-126972143D01*
X190413571Y-126900714D01*
X190484999Y-126757857D01*
X190556428Y-126472143D01*
X190556428Y-126115000D01*
X190484999Y-125829286D01*
X190413571Y-125686429D01*
X190342142Y-125615000D01*
X190199285Y-125543571D01*
X188770714Y-125543571D02*
X188627857Y-125543571D01*
X188485000Y-125615000D01*
X188413571Y-125686429D01*
X188342142Y-125829286D01*
X188270714Y-126115000D01*
X188270714Y-126472143D01*
X188342142Y-126757857D01*
X188413571Y-126900714D01*
X188485000Y-126972143D01*
X188627857Y-127043571D01*
X188770714Y-127043571D01*
X188913571Y-126972143D01*
X188985000Y-126900714D01*
X189056428Y-126757857D01*
X189127857Y-126472143D01*
X189127857Y-126115000D01*
X189056428Y-125829286D01*
X188985000Y-125686429D01*
X188913571Y-125615000D01*
X188770714Y-125543571D01*
X198925000Y-145093571D02*
X198353571Y-145093571D01*
X198710714Y-144593571D02*
X198710714Y-145879286D01*
X198639286Y-146022143D01*
X198496428Y-146093571D01*
X198353571Y-146093571D01*
X197853571Y-146093571D02*
X197853571Y-145093571D01*
X197853571Y-145379286D02*
X197782143Y-145236429D01*
X197710714Y-145165000D01*
X197567857Y-145093571D01*
X197425000Y-145093571D01*
X196710714Y-146093571D02*
X196853572Y-146022143D01*
X196925000Y-145950714D01*
X196996429Y-145807857D01*
X196996429Y-145379286D01*
X196925000Y-145236429D01*
X196853572Y-145165000D01*
X196710714Y-145093571D01*
X196496429Y-145093571D01*
X196353572Y-145165000D01*
X196282143Y-145236429D01*
X196210714Y-145379286D01*
X196210714Y-145807857D01*
X196282143Y-145950714D01*
X196353572Y-146022143D01*
X196496429Y-146093571D01*
X196710714Y-146093571D01*
X194925000Y-145093571D02*
X194925000Y-146093571D01*
X195567857Y-145093571D02*
X195567857Y-145879286D01*
X195496429Y-146022143D01*
X195353571Y-146093571D01*
X195139286Y-146093571D01*
X194996429Y-146022143D01*
X194925000Y-145950714D01*
X193567857Y-145093571D02*
X193567857Y-146307857D01*
X193639286Y-146450714D01*
X193710714Y-146522143D01*
X193853571Y-146593571D01*
X194067857Y-146593571D01*
X194210714Y-146522143D01*
X193567857Y-146022143D02*
X193710714Y-146093571D01*
X193996428Y-146093571D01*
X194139286Y-146022143D01*
X194210714Y-145950714D01*
X194282143Y-145807857D01*
X194282143Y-145379286D01*
X194210714Y-145236429D01*
X194139286Y-145165000D01*
X193996428Y-145093571D01*
X193710714Y-145093571D01*
X193567857Y-145165000D01*
X192853571Y-145093571D02*
X192853571Y-146093571D01*
X192853571Y-145236429D02*
X192782143Y-145165000D01*
X192639285Y-145093571D01*
X192425000Y-145093571D01*
X192282143Y-145165000D01*
X192210714Y-145307857D01*
X192210714Y-146093571D01*
X191282142Y-146093571D02*
X191425000Y-146022143D01*
X191496428Y-145950714D01*
X191567857Y-145807857D01*
X191567857Y-145379286D01*
X191496428Y-145236429D01*
X191425000Y-145165000D01*
X191282142Y-145093571D01*
X191067857Y-145093571D01*
X190925000Y-145165000D01*
X190853571Y-145236429D01*
X190782142Y-145379286D01*
X190782142Y-145807857D01*
X190853571Y-145950714D01*
X190925000Y-146022143D01*
X191067857Y-146093571D01*
X191282142Y-146093571D01*
X189496428Y-145093571D02*
X189496428Y-146093571D01*
X190139285Y-145093571D02*
X190139285Y-145879286D01*
X190067857Y-146022143D01*
X189924999Y-146093571D01*
X189710714Y-146093571D01*
X189567857Y-146022143D01*
X189496428Y-145950714D01*
X188996428Y-145093571D02*
X188424999Y-145093571D01*
X188782142Y-146093571D02*
X188782142Y-144807857D01*
X188710714Y-144665000D01*
X188567856Y-144593571D01*
X188424999Y-144593571D01*
M02*
