G04 #@! TF.FileFunction,Soldermask,Top*
%FSLAX46Y46*%
G04 Gerber Fmt 4.6, Leading zero omitted, Abs format (unit mm)*
G04 Created by KiCad (PCBNEW 4.0.1-stable) date Fri 01 Jan 2016 07:05:39 PM EST*
%MOMM*%
G01*
G04 APERTURE LIST*
%ADD10C,0.100000*%
%ADD11C,0.300000*%
%ADD12C,1.501140*%
%ADD13C,2.999740*%
%ADD14O,0.900000X2.500000*%
%ADD15C,1.100000*%
%ADD16R,1.100000X2.500000*%
G04 APERTURE END LIST*
D10*
D11*
X202617143Y-143323571D02*
X202617143Y-144537857D01*
X202688571Y-144680714D01*
X202760000Y-144752143D01*
X202902857Y-144823571D01*
X203188571Y-144823571D01*
X203331429Y-144752143D01*
X203402857Y-144680714D01*
X203474286Y-144537857D01*
X203474286Y-143323571D01*
X204117143Y-144752143D02*
X204331429Y-144823571D01*
X204688572Y-144823571D01*
X204831429Y-144752143D01*
X204902858Y-144680714D01*
X204974286Y-144537857D01*
X204974286Y-144395000D01*
X204902858Y-144252143D01*
X204831429Y-144180714D01*
X204688572Y-144109286D01*
X204402858Y-144037857D01*
X204260000Y-143966429D01*
X204188572Y-143895000D01*
X204117143Y-143752143D01*
X204117143Y-143609286D01*
X204188572Y-143466429D01*
X204260000Y-143395000D01*
X204402858Y-143323571D01*
X204760000Y-143323571D01*
X204974286Y-143395000D01*
X206117143Y-144037857D02*
X206331429Y-144109286D01*
X206402857Y-144180714D01*
X206474286Y-144323571D01*
X206474286Y-144537857D01*
X206402857Y-144680714D01*
X206331429Y-144752143D01*
X206188571Y-144823571D01*
X205617143Y-144823571D01*
X205617143Y-143323571D01*
X206117143Y-143323571D01*
X206260000Y-143395000D01*
X206331429Y-143466429D01*
X206402857Y-143609286D01*
X206402857Y-143752143D01*
X206331429Y-143895000D01*
X206260000Y-143966429D01*
X206117143Y-144037857D01*
X205617143Y-144037857D01*
X207117143Y-144252143D02*
X208260000Y-144252143D01*
X208902857Y-144752143D02*
X209117143Y-144823571D01*
X209474286Y-144823571D01*
X209617143Y-144752143D01*
X209688572Y-144680714D01*
X209760000Y-144537857D01*
X209760000Y-144395000D01*
X209688572Y-144252143D01*
X209617143Y-144180714D01*
X209474286Y-144109286D01*
X209188572Y-144037857D01*
X209045714Y-143966429D01*
X208974286Y-143895000D01*
X208902857Y-143752143D01*
X208902857Y-143609286D01*
X208974286Y-143466429D01*
X209045714Y-143395000D01*
X209188572Y-143323571D01*
X209545714Y-143323571D01*
X209760000Y-143395000D01*
X210260000Y-143323571D02*
X210617143Y-144823571D01*
X210902857Y-143752143D01*
X211188571Y-144823571D01*
X211545714Y-143323571D01*
D12*
X192277140Y-137162120D03*
X194817140Y-137162120D03*
X196849140Y-137162120D03*
X199389140Y-137162120D03*
D13*
X189229140Y-134495120D03*
X202945140Y-134495120D03*
D12*
X206372880Y-128777140D03*
X206372880Y-131317140D03*
X206372880Y-133349140D03*
X206372880Y-135889140D03*
D13*
X209039880Y-125729140D03*
X209039880Y-139445140D03*
D14*
X201280000Y-144482000D03*
D15*
X197880000Y-144482000D03*
D16*
X192080000Y-141732000D03*
X194580000Y-141732000D03*
X196580000Y-141732000D03*
X199080000Y-141732000D03*
D15*
X193280000Y-144482000D03*
D14*
X189880000Y-144482000D03*
M02*
