G04 #@! TF.FileFunction,Copper,L1,Top,Signal*
%FSLAX46Y46*%
G04 Gerber Fmt 4.6, Leading zero omitted, Abs format (unit mm)*
G04 Created by KiCad (PCBNEW 4.0.1-stable) date Fri 01 Jan 2016 07:05:39 PM EST*
%MOMM*%
G01*
G04 APERTURE LIST*
%ADD10C,0.100000*%
%ADD11C,1.501140*%
%ADD12C,2.999740*%
%ADD13O,0.900000X2.500000*%
%ADD14C,1.100000*%
%ADD15R,1.100000X2.500000*%
%ADD16C,0.250000*%
G04 APERTURE END LIST*
D10*
D11*
X192277140Y-137162120D03*
X194817140Y-137162120D03*
X196849140Y-137162120D03*
X199389140Y-137162120D03*
D12*
X189229140Y-134495120D03*
X202945140Y-134495120D03*
D11*
X206372880Y-128777140D03*
X206372880Y-131317140D03*
X206372880Y-133349140D03*
X206372880Y-135889140D03*
D12*
X209039880Y-125729140D03*
X209039880Y-139445140D03*
D13*
X201280000Y-144482000D03*
D14*
X197880000Y-144482000D03*
D15*
X192080000Y-141732000D03*
X194580000Y-141732000D03*
X196580000Y-141732000D03*
X199080000Y-141732000D03*
D14*
X193280000Y-144482000D03*
D13*
X189880000Y-144482000D03*
D16*
X189229140Y-134495120D02*
X189229140Y-129540860D01*
X193040860Y-125729140D02*
X209039880Y-125729140D01*
X189229140Y-129540860D02*
X193040860Y-125729140D01*
X189880000Y-144482000D02*
X189880000Y-135145980D01*
X189880000Y-135145980D02*
X189229140Y-134495120D01*
X201280000Y-144482000D02*
X201280000Y-144160000D01*
X199080000Y-141732000D02*
X200530020Y-141732000D01*
X200530020Y-141732000D02*
X206372880Y-135889140D01*
X199080000Y-141732000D02*
X199263000Y-141732000D01*
X196580000Y-141732000D02*
X196580000Y-137431260D01*
X196580000Y-137431260D02*
X196849140Y-137162120D01*
X194580000Y-141732000D02*
X194580000Y-137399260D01*
X194580000Y-137399260D02*
X194817140Y-137162120D01*
X192080000Y-141732000D02*
X192080000Y-137359260D01*
X192080000Y-137359260D02*
X192277140Y-137162120D01*
X206372880Y-128777140D02*
X202057860Y-128777140D01*
X199389140Y-131445860D02*
X199389140Y-137162120D01*
X202057860Y-128777140D02*
X199389140Y-131445860D01*
M02*
